<mxfile host="app.diagrams.net" agent="Mozilla/5.0 (Windows NT 10.0; Win64; x64) AppleWebKit/537.36 (KHTML, like Gecko) Chrome/129.0.0.0 Safari/537.36" version="24.8.6">
  <diagram name="Trang-1" id="PZ-4LcMb0IJrQqWokZ5e">
    <mxGraphModel dx="1177" dy="809" grid="1" gridSize="10" guides="1" tooltips="1" connect="1" arrows="1" fold="1" page="1" pageScale="1" pageWidth="827" pageHeight="1169" math="0" shadow="0">
      <root>
        <mxCell id="0" />
        <mxCell id="1" parent="0" />
        <mxCell id="F7CPtsOqUrx0cswUeZkx-1" value="star" style="text;html=1;align=center;verticalAlign=middle;resizable=0;points=[];autosize=1;strokeColor=none;fillColor=none;" parent="1" vertex="1">
          <mxGeometry x="440" y="48" width="40" height="30" as="geometry" />
        </mxCell>
        <mxCell id="F7CPtsOqUrx0cswUeZkx-2" value="" style="edgeStyle=none;orthogonalLoop=1;jettySize=auto;html=1;rounded=0;" parent="1" edge="1">
          <mxGeometry width="100" relative="1" as="geometry">
            <mxPoint x="459.5" y="78" as="sourcePoint" />
            <mxPoint x="459.5" y="128" as="targetPoint" />
            <Array as="points" />
          </mxGeometry>
        </mxCell>
        <mxCell id="F7CPtsOqUrx0cswUeZkx-5" value="" style="edgeStyle=orthogonalEdgeStyle;rounded=0;orthogonalLoop=1;jettySize=auto;html=1;" parent="1" source="F7CPtsOqUrx0cswUeZkx-3" target="F7CPtsOqUrx0cswUeZkx-4" edge="1">
          <mxGeometry relative="1" as="geometry" />
        </mxCell>
        <mxCell id="F7CPtsOqUrx0cswUeZkx-3" value="Nhap a,b" style="text;html=1;align=center;verticalAlign=middle;resizable=0;points=[];autosize=1;strokeColor=none;fillColor=none;" parent="1" vertex="1">
          <mxGeometry x="425" y="138" width="70" height="30" as="geometry" />
        </mxCell>
        <mxCell id="F7CPtsOqUrx0cswUeZkx-7" value="" style="edgeStyle=orthogonalEdgeStyle;rounded=0;orthogonalLoop=1;jettySize=auto;html=1;" parent="1" source="F7CPtsOqUrx0cswUeZkx-4" target="F7CPtsOqUrx0cswUeZkx-6" edge="1">
          <mxGeometry relative="1" as="geometry" />
        </mxCell>
        <mxCell id="F7CPtsOqUrx0cswUeZkx-4" value="c=a+b" style="text;html=1;align=center;verticalAlign=middle;resizable=0;points=[];autosize=1;strokeColor=none;fillColor=none;" parent="1" vertex="1">
          <mxGeometry x="430" y="248" width="60" height="30" as="geometry" />
        </mxCell>
        <mxCell id="LR4ZUTN3W8z5Xj38rTmF-2" value="" style="edgeStyle=orthogonalEdgeStyle;rounded=0;orthogonalLoop=1;jettySize=auto;html=1;" edge="1" parent="1" source="F7CPtsOqUrx0cswUeZkx-6" target="LR4ZUTN3W8z5Xj38rTmF-1">
          <mxGeometry relative="1" as="geometry" />
        </mxCell>
        <mxCell id="F7CPtsOqUrx0cswUeZkx-6" value="in:c" style="text;html=1;align=center;verticalAlign=middle;resizable=0;points=[];autosize=1;strokeColor=none;fillColor=none;" parent="1" vertex="1">
          <mxGeometry x="440" y="358" width="40" height="30" as="geometry" />
        </mxCell>
        <mxCell id="LR4ZUTN3W8z5Xj38rTmF-1" value="in:c" style="text;html=1;align=center;verticalAlign=middle;resizable=0;points=[];autosize=1;strokeColor=none;fillColor=none;" vertex="1" parent="1">
          <mxGeometry x="440" y="468" width="40" height="30" as="geometry" />
        </mxCell>
      </root>
    </mxGraphModel>
  </diagram>
</mxfile>
